<svg aria-roledescription="er" viewBox="0 0 893.7994995117188 408" style="max-width: 893.799px; background-color: white;" xmlns:xlink="http://www.w3.org/1999/xlink" xmlns="http://www.w3.org/2000/svg" width="100%" id="mermaid-0"><style>#mermaid-0{font-family:"trebuchet ms",verdana,arial,sans-serif;font-size:16px;fill:#000000;}#mermaid-0 .error-icon{fill:#552222;}#mermaid-0 .error-text{fill:#552222;stroke:#552222;}#mermaid-0 .edge-thickness-normal{stroke-width:2px;}#mermaid-0 .edge-thickness-thick{stroke-width:3.5px;}#mermaid-0 .edge-pattern-solid{stroke-dasharray:0;}#mermaid-0 .edge-pattern-dashed{stroke-dasharray:3;}#mermaid-0 .edge-pattern-dotted{stroke-dasharray:2;}#mermaid-0 .marker{fill:#000000;stroke:#000000;}#mermaid-0 .marker.cross{stroke:#000000;}#mermaid-0 svg{font-family:"trebuchet ms",verdana,arial,sans-serif;font-size:16px;}#mermaid-0 .entityBox{fill:#cde498;stroke:#13540c;}#mermaid-0 .attributeBoxOdd{fill:#ffffff;stroke:#13540c;}#mermaid-0 .attributeBoxEven{fill:#f2f2f2;stroke:#13540c;}#mermaid-0 .relationshipLabelBox{fill:hsl(78.1578947368, 58.4615384615%, 84.5098039216%);opacity:0.7;background-color:hsl(78.1578947368, 58.4615384615%, 84.5098039216%);}#mermaid-0 .relationshipLabelBox rect{opacity:0.5;}#mermaid-0 .relationshipLine{stroke:#000000;}#mermaid-0 .entityTitleText{text-anchor:middle;font-size:18px;fill:#000000;}#mermaid-0 :root{--mermaid-font-family:"trebuchet ms",verdana,arial,sans-serif;}</style><g/><defs><marker orient="auto" markerHeight="18" markerWidth="18" refY="9" refX="0" id="ONLY_ONE_START"><path d="M9,0 L9,18 M15,0 L15,18" fill="none" stroke="gray"/></marker></defs><defs><marker orient="auto" markerHeight="18" markerWidth="18" refY="9" refX="18" id="ONLY_ONE_END"><path d="M3,0 L3,18 M9,0 L9,18" fill="none" stroke="gray"/></marker></defs><defs><marker orient="auto" markerHeight="18" markerWidth="30" refY="9" refX="0" id="ZERO_OR_ONE_START"><circle r="6" cy="9" cx="21" fill="white" stroke="gray"/><path d="M9,0 L9,18" fill="none" stroke="gray"/></marker></defs><defs><marker orient="auto" markerHeight="18" markerWidth="30" refY="9" refX="30" id="ZERO_OR_ONE_END"><circle r="6" cy="9" cx="9" fill="white" stroke="gray"/><path d="M21,0 L21,18" fill="none" stroke="gray"/></marker></defs><defs><marker orient="auto" markerHeight="36" markerWidth="45" refY="18" refX="18" id="ONE_OR_MORE_START"><path d="M0,18 Q 18,0 36,18 Q 18,36 0,18 M42,9 L42,27" fill="none" stroke="gray"/></marker></defs><defs><marker orient="auto" markerHeight="36" markerWidth="45" refY="18" refX="27" id="ONE_OR_MORE_END"><path d="M3,9 L3,27 M9,18 Q27,0 45,18 Q27,36 9,18" fill="none" stroke="gray"/></marker></defs><defs><marker orient="auto" markerHeight="36" markerWidth="57" refY="18" refX="18" id="ZERO_OR_MORE_START"><circle r="6" cy="18" cx="48" fill="white" stroke="gray"/><path d="M0,18 Q18,0 36,18 Q18,36 0,18" fill="none" stroke="gray"/></marker></defs><defs><marker orient="auto" markerHeight="36" markerWidth="57" refY="18" refX="39" id="ZERO_OR_MORE_END"><circle r="6" cy="18" cx="9" fill="white" stroke="gray"/><path d="M21,18 Q39,0 57,18 Q39,36 21,18" fill="none" stroke="gray"/></marker></defs><path style="stroke: gray; fill: none;" marker-start="url(#ZERO_OR_MORE_START)" marker-end="url(#ZERO_OR_ONE_END)" d="M88.8590087890625,198L88.8590087890625,206.33333333333334C88.8590087890625,214.66666666666666,88.8590087890625,231.33333333333334,88.8590087890625,248C88.8590087890625,264.6666666666667,88.8590087890625,281.3333333333333,88.8590087890625,289.6666666666667L88.8590087890625,298" class="er relationshipLine"/><g transform="translate(20,20 )" id="entity-user-0e947936-e1a8-4cbc-a065-29ac86c7c0fe"><rect height="178" width="137.718017578125" y="0" x="0" class="er entityBox"/><text style="dominant-baseline: middle; text-anchor: middle; font-size: 12px;" transform="translate(68.8590087890625,12)" y="0" x="0" id="text-entity-user-0e947936-e1a8-4cbc-a065-29ac86c7c0fe" class="er entityLabel">user</text><rect height="22" width="54.095550537109375" y="24" x="0" class="er attributeBoxOdd"/><text style="dominant-baseline: middle; font-size: 10.2px;" transform="translate(5,35)" y="0" x="0" id="text-entity-user-0e947936-e1a8-4cbc-a065-29ac86c7c0fe-attr-1-type" class="er entityLabel">String</text><rect height="22" width="60.934783935546875" y="24" x="54.095550537109375" class="er attributeBoxOdd"/><text style="dominant-baseline: middle; font-size: 10.2px;" transform="translate(59.095550537109375,35)" y="0" x="0" id="text-entity-user-0e947936-e1a8-4cbc-a065-29ac86c7c0fe-attr-1-name" class="er entityLabel">id</text><rect height="22" width="22.68768310546875" y="24" x="115.03033447265625" class="er attributeBoxOdd"/><text style="dominant-baseline: middle; font-size: 10.2px;" transform="translate(120.03033447265625,35)" y="0" x="0" id="text-entity-user-0e947936-e1a8-4cbc-a065-29ac86c7c0fe-attr-1-key" class="er entityLabel">PK</text><rect height="22" width="54.095550537109375" y="46" x="0" class="er attributeBoxEven"/><text style="dominant-baseline: middle; font-size: 10.2px;" transform="translate(5,57)" y="0" x="0" id="text-entity-user-0e947936-e1a8-4cbc-a065-29ac86c7c0fe-attr-2-type" class="er entityLabel">String</text><rect height="22" width="60.934783935546875" y="46" x="54.095550537109375" class="er attributeBoxEven"/><text style="dominant-baseline: middle; font-size: 10.2px;" transform="translate(59.095550537109375,57)" y="0" x="0" id="text-entity-user-0e947936-e1a8-4cbc-a065-29ac86c7c0fe-attr-2-name" class="er entityLabel">username</text><rect height="22" width="22.68768310546875" y="46" x="115.03033447265625" class="er attributeBoxEven"/><text style="dominant-baseline: middle; font-size: 10.2px;" transform="translate(120.03033447265625,57)" y="0" x="0" id="text-entity-user-0e947936-e1a8-4cbc-a065-29ac86c7c0fe-attr-2-key" class="er entityLabel"/><rect height="22" width="54.095550537109375" y="68" x="0" class="er attributeBoxOdd"/><text style="dominant-baseline: middle; font-size: 10.2px;" transform="translate(5,79)" y="0" x="0" id="text-entity-user-0e947936-e1a8-4cbc-a065-29ac86c7c0fe-attr-3-type" class="er entityLabel">String</text><rect height="22" width="60.934783935546875" y="68" x="54.095550537109375" class="er attributeBoxOdd"/><text style="dominant-baseline: middle; font-size: 10.2px;" transform="translate(59.095550537109375,79)" y="0" x="0" id="text-entity-user-0e947936-e1a8-4cbc-a065-29ac86c7c0fe-attr-3-name" class="er entityLabel">name</text><rect height="22" width="22.68768310546875" y="68" x="115.03033447265625" class="er attributeBoxOdd"/><text style="dominant-baseline: middle; font-size: 10.2px;" transform="translate(120.03033447265625,79)" y="0" x="0" id="text-entity-user-0e947936-e1a8-4cbc-a065-29ac86c7c0fe-attr-3-key" class="er entityLabel"/><rect height="22" width="54.095550537109375" y="90" x="0" class="er attributeBoxEven"/><text style="dominant-baseline: middle; font-size: 10.2px;" transform="translate(5,101)" y="0" x="0" id="text-entity-user-0e947936-e1a8-4cbc-a065-29ac86c7c0fe-attr-4-type" class="er entityLabel">String</text><rect height="22" width="60.934783935546875" y="90" x="54.095550537109375" class="er attributeBoxEven"/><text style="dominant-baseline: middle; font-size: 10.2px;" transform="translate(59.095550537109375,101)" y="0" x="0" id="text-entity-user-0e947936-e1a8-4cbc-a065-29ac86c7c0fe-attr-4-name" class="er entityLabel">password</text><rect height="22" width="22.68768310546875" y="90" x="115.03033447265625" class="er attributeBoxEven"/><text style="dominant-baseline: middle; font-size: 10.2px;" transform="translate(120.03033447265625,101)" y="0" x="0" id="text-entity-user-0e947936-e1a8-4cbc-a065-29ac86c7c0fe-attr-4-key" class="er entityLabel"/><rect height="22" width="54.095550537109375" y="112" x="0" class="er attributeBoxOdd"/><text style="dominant-baseline: middle; font-size: 10.2px;" transform="translate(5,123)" y="0" x="0" id="text-entity-user-0e947936-e1a8-4cbc-a065-29ac86c7c0fe-attr-5-type" class="er entityLabel">String</text><rect height="22" width="60.934783935546875" y="112" x="54.095550537109375" class="er attributeBoxOdd"/><text style="dominant-baseline: middle; font-size: 10.2px;" transform="translate(59.095550537109375,123)" y="0" x="0" id="text-entity-user-0e947936-e1a8-4cbc-a065-29ac86c7c0fe-attr-5-name" class="er entityLabel">expoToken</text><rect height="22" width="22.68768310546875" y="112" x="115.03033447265625" class="er attributeBoxOdd"/><text style="dominant-baseline: middle; font-size: 10.2px;" transform="translate(120.03033447265625,123)" y="0" x="0" id="text-entity-user-0e947936-e1a8-4cbc-a065-29ac86c7c0fe-attr-5-key" class="er entityLabel"/><rect height="22" width="54.095550537109375" y="134" x="0" class="er attributeBoxEven"/><text style="dominant-baseline: middle; font-size: 10.2px;" transform="translate(5,145)" y="0" x="0" id="text-entity-user-0e947936-e1a8-4cbc-a065-29ac86c7c0fe-attr-6-type" class="er entityLabel">Int</text><rect height="22" width="60.934783935546875" y="134" x="54.095550537109375" class="er attributeBoxEven"/><text style="dominant-baseline: middle; font-size: 10.2px;" transform="translate(59.095550537109375,145)" y="0" x="0" id="text-entity-user-0e947936-e1a8-4cbc-a065-29ac86c7c0fe-attr-6-name" class="er entityLabel">level</text><rect height="22" width="22.68768310546875" y="134" x="115.03033447265625" class="er attributeBoxEven"/><text style="dominant-baseline: middle; font-size: 10.2px;" transform="translate(120.03033447265625,145)" y="0" x="0" id="text-entity-user-0e947936-e1a8-4cbc-a065-29ac86c7c0fe-attr-6-key" class="er entityLabel"/><rect height="22" width="54.095550537109375" y="156" x="0" class="er attributeBoxOdd"/><text style="dominant-baseline: middle; font-size: 10.2px;" transform="translate(5,167)" y="0" x="0" id="text-entity-user-0e947936-e1a8-4cbc-a065-29ac86c7c0fe-attr-7-type" class="er entityLabel">DateTime</text><rect height="22" width="60.934783935546875" y="156" x="54.095550537109375" class="er attributeBoxOdd"/><text style="dominant-baseline: middle; font-size: 10.2px;" transform="translate(59.095550537109375,167)" y="0" x="0" id="text-entity-user-0e947936-e1a8-4cbc-a065-29ac86c7c0fe-attr-7-name" class="er entityLabel">created_at</text><rect height="22" width="22.68768310546875" y="156" x="115.03033447265625" class="er attributeBoxOdd"/><text style="dominant-baseline: middle; font-size: 10.2px;" transform="translate(120.03033447265625,167)" y="0" x="0" id="text-entity-user-0e947936-e1a8-4cbc-a065-29ac86c7c0fe-attr-7-key" class="er entityLabel"/></g><g transform="translate(257.718017578125,20 )" id="entity-product-d5bc4903-2d49-48c8-bf7e-ce1f009b8bfc"><rect height="178" width="140.6454620361328" y="0" x="0" class="er entityBox"/><text style="dominant-baseline: middle; text-anchor: middle; font-size: 12px;" transform="translate(70.3227310180664,12)" y="0" x="0" id="text-entity-product-d5bc4903-2d49-48c8-bf7e-ce1f009b8bfc" class="er entityLabel">product</text><rect height="22" width="54.095550537109375" y="24" x="0" class="er attributeBoxOdd"/><text style="dominant-baseline: middle; font-size: 10.2px;" transform="translate(5,35)" y="0" x="0" id="text-entity-product-d5bc4903-2d49-48c8-bf7e-ce1f009b8bfc-attr-1-type" class="er entityLabel">String</text><rect height="22" width="63.86222839355469" y="24" x="54.095550537109375" class="er attributeBoxOdd"/><text style="dominant-baseline: middle; font-size: 10.2px;" transform="translate(59.095550537109375,35)" y="0" x="0" id="text-entity-product-d5bc4903-2d49-48c8-bf7e-ce1f009b8bfc-attr-1-name" class="er entityLabel">id</text><rect height="22" width="22.68768310546875" y="24" x="117.95777893066406" class="er attributeBoxOdd"/><text style="dominant-baseline: middle; font-size: 10.2px;" transform="translate(122.95777893066406,35)" y="0" x="0" id="text-entity-product-d5bc4903-2d49-48c8-bf7e-ce1f009b8bfc-attr-1-key" class="er entityLabel">PK</text><rect height="22" width="54.095550537109375" y="46" x="0" class="er attributeBoxEven"/><text style="dominant-baseline: middle; font-size: 10.2px;" transform="translate(5,57)" y="0" x="0" id="text-entity-product-d5bc4903-2d49-48c8-bf7e-ce1f009b8bfc-attr-2-type" class="er entityLabel">String</text><rect height="22" width="63.86222839355469" y="46" x="54.095550537109375" class="er attributeBoxEven"/><text style="dominant-baseline: middle; font-size: 10.2px;" transform="translate(59.095550537109375,57)" y="0" x="0" id="text-entity-product-d5bc4903-2d49-48c8-bf7e-ce1f009b8bfc-attr-2-name" class="er entityLabel">title</text><rect height="22" width="22.68768310546875" y="46" x="117.95777893066406" class="er attributeBoxEven"/><text style="dominant-baseline: middle; font-size: 10.2px;" transform="translate(122.95777893066406,57)" y="0" x="0" id="text-entity-product-d5bc4903-2d49-48c8-bf7e-ce1f009b8bfc-attr-2-key" class="er entityLabel"/><rect height="22" width="54.095550537109375" y="68" x="0" class="er attributeBoxOdd"/><text style="dominant-baseline: middle; font-size: 10.2px;" transform="translate(5,79)" y="0" x="0" id="text-entity-product-d5bc4903-2d49-48c8-bf7e-ce1f009b8bfc-attr-3-type" class="er entityLabel">String</text><rect height="22" width="63.86222839355469" y="68" x="54.095550537109375" class="er attributeBoxOdd"/><text style="dominant-baseline: middle; font-size: 10.2px;" transform="translate(59.095550537109375,79)" y="0" x="0" id="text-entity-product-d5bc4903-2d49-48c8-bf7e-ce1f009b8bfc-attr-3-name" class="er entityLabel">description</text><rect height="22" width="22.68768310546875" y="68" x="117.95777893066406" class="er attributeBoxOdd"/><text style="dominant-baseline: middle; font-size: 10.2px;" transform="translate(122.95777893066406,79)" y="0" x="0" id="text-entity-product-d5bc4903-2d49-48c8-bf7e-ce1f009b8bfc-attr-3-key" class="er entityLabel"/><rect height="22" width="54.095550537109375" y="90" x="0" class="er attributeBoxEven"/><text style="dominant-baseline: middle; font-size: 10.2px;" transform="translate(5,101)" y="0" x="0" id="text-entity-product-d5bc4903-2d49-48c8-bf7e-ce1f009b8bfc-attr-4-type" class="er entityLabel">Float</text><rect height="22" width="63.86222839355469" y="90" x="54.095550537109375" class="er attributeBoxEven"/><text style="dominant-baseline: middle; font-size: 10.2px;" transform="translate(59.095550537109375,101)" y="0" x="0" id="text-entity-product-d5bc4903-2d49-48c8-bf7e-ce1f009b8bfc-attr-4-name" class="er entityLabel">price</text><rect height="22" width="22.68768310546875" y="90" x="117.95777893066406" class="er attributeBoxEven"/><text style="dominant-baseline: middle; font-size: 10.2px;" transform="translate(122.95777893066406,101)" y="0" x="0" id="text-entity-product-d5bc4903-2d49-48c8-bf7e-ce1f009b8bfc-attr-4-key" class="er entityLabel"/><rect height="22" width="54.095550537109375" y="112" x="0" class="er attributeBoxOdd"/><text style="dominant-baseline: middle; font-size: 10.2px;" transform="translate(5,123)" y="0" x="0" id="text-entity-product-d5bc4903-2d49-48c8-bf7e-ce1f009b8bfc-attr-5-type" class="er entityLabel">String</text><rect height="22" width="63.86222839355469" y="112" x="54.095550537109375" class="er attributeBoxOdd"/><text style="dominant-baseline: middle; font-size: 10.2px;" transform="translate(59.095550537109375,123)" y="0" x="0" id="text-entity-product-d5bc4903-2d49-48c8-bf7e-ce1f009b8bfc-attr-5-name" class="er entityLabel">category_id</text><rect height="22" width="22.68768310546875" y="112" x="117.95777893066406" class="er attributeBoxOdd"/><text style="dominant-baseline: middle; font-size: 10.2px;" transform="translate(122.95777893066406,123)" y="0" x="0" id="text-entity-product-d5bc4903-2d49-48c8-bf7e-ce1f009b8bfc-attr-5-key" class="er entityLabel"/><rect height="22" width="54.095550537109375" y="134" x="0" class="er attributeBoxEven"/><text style="dominant-baseline: middle; font-size: 10.2px;" transform="translate(5,145)" y="0" x="0" id="text-entity-product-d5bc4903-2d49-48c8-bf7e-ce1f009b8bfc-attr-6-type" class="er entityLabel">DateTime</text><rect height="22" width="63.86222839355469" y="134" x="54.095550537109375" class="er attributeBoxEven"/><text style="dominant-baseline: middle; font-size: 10.2px;" transform="translate(59.095550537109375,145)" y="0" x="0" id="text-entity-product-d5bc4903-2d49-48c8-bf7e-ce1f009b8bfc-attr-6-name" class="er entityLabel">created_at</text><rect height="22" width="22.68768310546875" y="134" x="117.95777893066406" class="er attributeBoxEven"/><text style="dominant-baseline: middle; font-size: 10.2px;" transform="translate(122.95777893066406,145)" y="0" x="0" id="text-entity-product-d5bc4903-2d49-48c8-bf7e-ce1f009b8bfc-attr-6-key" class="er entityLabel"/><rect height="22" width="54.095550537109375" y="156" x="0" class="er attributeBoxOdd"/><text style="dominant-baseline: middle; font-size: 10.2px;" transform="translate(5,167)" y="0" x="0" id="text-entity-product-d5bc4903-2d49-48c8-bf7e-ce1f009b8bfc-attr-7-type" class="er entityLabel">String</text><rect height="22" width="63.86222839355469" y="156" x="54.095550537109375" class="er attributeBoxOdd"/><text style="dominant-baseline: middle; font-size: 10.2px;" transform="translate(59.095550537109375,167)" y="0" x="0" id="text-entity-product-d5bc4903-2d49-48c8-bf7e-ce1f009b8bfc-attr-7-name" class="er entityLabel">image</text><rect height="22" width="22.68768310546875" y="156" x="117.95777893066406" class="er attributeBoxOdd"/><text style="dominant-baseline: middle; font-size: 10.2px;" transform="translate(122.95777893066406,167)" y="0" x="0" id="text-entity-product-d5bc4903-2d49-48c8-bf7e-ce1f009b8bfc-attr-7-key" class="er entityLabel"/></g><g transform="translate(498.3634796142578,64 )" id="entity-category-972bf40e-cba7-4373-9bbd-064a31aa8972"><rect height="90" width="137.718017578125" y="0" x="0" class="er entityBox"/><text style="dominant-baseline: middle; text-anchor: middle; font-size: 12px;" transform="translate(68.8590087890625,12)" y="0" x="0" id="text-entity-category-972bf40e-cba7-4373-9bbd-064a31aa8972" class="er entityLabel">category</text><rect height="22" width="54.095550537109375" y="24" x="0" class="er attributeBoxOdd"/><text style="dominant-baseline: middle; font-size: 10.2px;" transform="translate(5,35)" y="0" x="0" id="text-entity-category-972bf40e-cba7-4373-9bbd-064a31aa8972-attr-1-type" class="er entityLabel">String</text><rect height="22" width="60.934783935546875" y="24" x="54.095550537109375" class="er attributeBoxOdd"/><text style="dominant-baseline: middle; font-size: 10.2px;" transform="translate(59.095550537109375,35)" y="0" x="0" id="text-entity-category-972bf40e-cba7-4373-9bbd-064a31aa8972-attr-1-name" class="er entityLabel">id</text><rect height="22" width="22.68768310546875" y="24" x="115.03033447265625" class="er attributeBoxOdd"/><text style="dominant-baseline: middle; font-size: 10.2px;" transform="translate(120.03033447265625,35)" y="0" x="0" id="text-entity-category-972bf40e-cba7-4373-9bbd-064a31aa8972-attr-1-key" class="er entityLabel">PK</text><rect height="22" width="54.095550537109375" y="46" x="0" class="er attributeBoxEven"/><text style="dominant-baseline: middle; font-size: 10.2px;" transform="translate(5,57)" y="0" x="0" id="text-entity-category-972bf40e-cba7-4373-9bbd-064a31aa8972-attr-2-type" class="er entityLabel">String</text><rect height="22" width="60.934783935546875" y="46" x="54.095550537109375" class="er attributeBoxEven"/><text style="dominant-baseline: middle; font-size: 10.2px;" transform="translate(59.095550537109375,57)" y="0" x="0" id="text-entity-category-972bf40e-cba7-4373-9bbd-064a31aa8972-attr-2-name" class="er entityLabel">title</text><rect height="22" width="22.68768310546875" y="46" x="115.03033447265625" class="er attributeBoxEven"/><text style="dominant-baseline: middle; font-size: 10.2px;" transform="translate(120.03033447265625,57)" y="0" x="0" id="text-entity-category-972bf40e-cba7-4373-9bbd-064a31aa8972-attr-2-key" class="er entityLabel"/><rect height="22" width="54.095550537109375" y="68" x="0" class="er attributeBoxOdd"/><text style="dominant-baseline: middle; font-size: 10.2px;" transform="translate(5,79)" y="0" x="0" id="text-entity-category-972bf40e-cba7-4373-9bbd-064a31aa8972-attr-3-type" class="er entityLabel">DateTime</text><rect height="22" width="60.934783935546875" y="68" x="54.095550537109375" class="er attributeBoxOdd"/><text style="dominant-baseline: middle; font-size: 10.2px;" transform="translate(59.095550537109375,79)" y="0" x="0" id="text-entity-category-972bf40e-cba7-4373-9bbd-064a31aa8972-attr-3-name" class="er entityLabel">created_at</text><rect height="22" width="22.68768310546875" y="68" x="115.03033447265625" class="er attributeBoxOdd"/><text style="dominant-baseline: middle; font-size: 10.2px;" transform="translate(120.03033447265625,79)" y="0" x="0" id="text-entity-category-972bf40e-cba7-4373-9bbd-064a31aa8972-attr-3-key" class="er entityLabel"/></g><g transform="translate(736.0814971923828,53 )" id="entity-image-ac2e09ae-d574-4ccd-9ee9-1a225a0601d3"><rect height="112" width="137.718017578125" y="0" x="0" class="er entityBox"/><text style="dominant-baseline: middle; text-anchor: middle; font-size: 12px;" transform="translate(68.8590087890625,12)" y="0" x="0" id="text-entity-image-ac2e09ae-d574-4ccd-9ee9-1a225a0601d3" class="er entityLabel">image</text><rect height="22" width="54.095550537109375" y="24" x="0" class="er attributeBoxOdd"/><text style="dominant-baseline: middle; font-size: 10.2px;" transform="translate(5,35)" y="0" x="0" id="text-entity-image-ac2e09ae-d574-4ccd-9ee9-1a225a0601d3-attr-1-type" class="er entityLabel">String</text><rect height="22" width="60.934783935546875" y="24" x="54.095550537109375" class="er attributeBoxOdd"/><text style="dominant-baseline: middle; font-size: 10.2px;" transform="translate(59.095550537109375,35)" y="0" x="0" id="text-entity-image-ac2e09ae-d574-4ccd-9ee9-1a225a0601d3-attr-1-name" class="er entityLabel">id</text><rect height="22" width="22.68768310546875" y="24" x="115.03033447265625" class="er attributeBoxOdd"/><text style="dominant-baseline: middle; font-size: 10.2px;" transform="translate(120.03033447265625,35)" y="0" x="0" id="text-entity-image-ac2e09ae-d574-4ccd-9ee9-1a225a0601d3-attr-1-key" class="er entityLabel">PK</text><rect height="22" width="54.095550537109375" y="46" x="0" class="er attributeBoxEven"/><text style="dominant-baseline: middle; font-size: 10.2px;" transform="translate(5,57)" y="0" x="0" id="text-entity-image-ac2e09ae-d574-4ccd-9ee9-1a225a0601d3-attr-2-type" class="er entityLabel">String</text><rect height="22" width="60.934783935546875" y="46" x="54.095550537109375" class="er attributeBoxEven"/><text style="dominant-baseline: middle; font-size: 10.2px;" transform="translate(59.095550537109375,57)" y="0" x="0" id="text-entity-image-ac2e09ae-d574-4ccd-9ee9-1a225a0601d3-attr-2-name" class="er entityLabel">uri</text><rect height="22" width="22.68768310546875" y="46" x="115.03033447265625" class="er attributeBoxEven"/><text style="dominant-baseline: middle; font-size: 10.2px;" transform="translate(120.03033447265625,57)" y="0" x="0" id="text-entity-image-ac2e09ae-d574-4ccd-9ee9-1a225a0601d3-attr-2-key" class="er entityLabel"/><rect height="22" width="54.095550537109375" y="68" x="0" class="er attributeBoxOdd"/><text style="dominant-baseline: middle; font-size: 10.2px;" transform="translate(5,79)" y="0" x="0" id="text-entity-image-ac2e09ae-d574-4ccd-9ee9-1a225a0601d3-attr-3-type" class="er entityLabel">String</text><rect height="22" width="60.934783935546875" y="68" x="54.095550537109375" class="er attributeBoxOdd"/><text style="dominant-baseline: middle; font-size: 10.2px;" transform="translate(59.095550537109375,79)" y="0" x="0" id="text-entity-image-ac2e09ae-d574-4ccd-9ee9-1a225a0601d3-attr-3-name" class="er entityLabel">product_id</text><rect height="22" width="22.68768310546875" y="68" x="115.03033447265625" class="er attributeBoxOdd"/><text style="dominant-baseline: middle; font-size: 10.2px;" transform="translate(120.03033447265625,79)" y="0" x="0" id="text-entity-image-ac2e09ae-d574-4ccd-9ee9-1a225a0601d3-attr-3-key" class="er entityLabel"/><rect height="22" width="54.095550537109375" y="90" x="0" class="er attributeBoxEven"/><text style="dominant-baseline: middle; font-size: 10.2px;" transform="translate(5,101)" y="0" x="0" id="text-entity-image-ac2e09ae-d574-4ccd-9ee9-1a225a0601d3-attr-4-type" class="er entityLabel">DateTime</text><rect height="22" width="60.934783935546875" y="90" x="54.095550537109375" class="er attributeBoxEven"/><text style="dominant-baseline: middle; font-size: 10.2px;" transform="translate(59.095550537109375,101)" y="0" x="0" id="text-entity-image-ac2e09ae-d574-4ccd-9ee9-1a225a0601d3-attr-4-name" class="er entityLabel">created_at</text><rect height="22" width="22.68768310546875" y="90" x="115.03033447265625" class="er attributeBoxEven"/><text style="dominant-baseline: middle; font-size: 10.2px;" transform="translate(120.03033447265625,101)" y="0" x="0" id="text-entity-image-ac2e09ae-d574-4ccd-9ee9-1a225a0601d3-attr-4-key" class="er entityLabel"/></g><g transform="translate(35.001686096191406,298 )" id="entity-refreshToken-4293b37c-c5c7-47e9-ae36-987c1d22345e"><rect height="90" width="107.71464538574219" y="0" x="0" class="er entityBox"/><text style="dominant-baseline: middle; text-anchor: middle; font-size: 12px;" transform="translate(53.857322692871094,12)" y="0" x="0" id="text-entity-refreshToken-4293b37c-c5c7-47e9-ae36-987c1d22345e" class="er entityLabel">refreshToken</text><rect height="22" width="37.39605712890625" y="24" x="0" class="er attributeBoxOdd"/><text style="dominant-baseline: middle; font-size: 10.2px;" transform="translate(5,35)" y="0" x="0" id="text-entity-refreshToken-4293b37c-c5c7-47e9-ae36-987c1d22345e-attr-1-type" class="er entityLabel">String</text><rect height="22" width="47.63090515136719" y="24" x="37.39605712890625" class="er attributeBoxOdd"/><text style="dominant-baseline: middle; font-size: 10.2px;" transform="translate(42.39605712890625,35)" y="0" x="0" id="text-entity-refreshToken-4293b37c-c5c7-47e9-ae36-987c1d22345e-attr-1-name" class="er entityLabel">id</text><rect height="22" width="22.68768310546875" y="24" x="85.02696228027344" class="er attributeBoxOdd"/><text style="dominant-baseline: middle; font-size: 10.2px;" transform="translate(90.02696228027344,35)" y="0" x="0" id="text-entity-refreshToken-4293b37c-c5c7-47e9-ae36-987c1d22345e-attr-1-key" class="er entityLabel">PK</text><rect height="22" width="37.39605712890625" y="46" x="0" class="er attributeBoxEven"/><text style="dominant-baseline: middle; font-size: 10.2px;" transform="translate(5,57)" y="0" x="0" id="text-entity-refreshToken-4293b37c-c5c7-47e9-ae36-987c1d22345e-attr-2-type" class="er entityLabel">Int</text><rect height="22" width="47.63090515136719" y="46" x="37.39605712890625" class="er attributeBoxEven"/><text style="dominant-baseline: middle; font-size: 10.2px;" transform="translate(42.39605712890625,57)" y="0" x="0" id="text-entity-refreshToken-4293b37c-c5c7-47e9-ae36-987c1d22345e-attr-2-name" class="er entityLabel">expireIn</text><rect height="22" width="22.68768310546875" y="46" x="85.02696228027344" class="er attributeBoxEven"/><text style="dominant-baseline: middle; font-size: 10.2px;" transform="translate(90.02696228027344,57)" y="0" x="0" id="text-entity-refreshToken-4293b37c-c5c7-47e9-ae36-987c1d22345e-attr-2-key" class="er entityLabel"/><rect height="22" width="37.39605712890625" y="68" x="0" class="er attributeBoxOdd"/><text style="dominant-baseline: middle; font-size: 10.2px;" transform="translate(5,79)" y="0" x="0" id="text-entity-refreshToken-4293b37c-c5c7-47e9-ae36-987c1d22345e-attr-3-type" class="er entityLabel">String</text><rect height="22" width="47.63090515136719" y="68" x="37.39605712890625" class="er attributeBoxOdd"/><text style="dominant-baseline: middle; font-size: 10.2px;" transform="translate(42.39605712890625,79)" y="0" x="0" id="text-entity-refreshToken-4293b37c-c5c7-47e9-ae36-987c1d22345e-attr-3-name" class="er entityLabel">userId</text><rect height="22" width="22.68768310546875" y="68" x="85.02696228027344" class="er attributeBoxOdd"/><text style="dominant-baseline: middle; font-size: 10.2px;" transform="translate(90.02696228027344,79)" y="0" x="0" id="text-entity-refreshToken-4293b37c-c5c7-47e9-ae36-987c1d22345e-attr-3-key" class="er entityLabel"/></g><rect height="14" width="75.35546875" y="241" x="51.1812744140625" class="er relationshipLabelBox"/><text style="text-anchor: middle; dominant-baseline: middle; font-size: 12px;" y="248" x="88.8590087890625" id="rel1" class="er relationshipLabel">refresh_token</text></svg>